<svg xmlns="http://www.w3.org/2000/svg" width="127.99000000000001" height="35" viewBox="0 0 127.99000000000001 35"><rect class="svg__rect" x="0" y="0" width="55.78" height="35" fill="#31C4F3"/><rect class="svg__rect" x="53.78" y="0" width="74.21000000000001" height="35" fill="#389AD5"/><path class="svg__text" d="M16.25 14.66L13.61 14.66L13.61 13.47L20.38 13.47L20.38 14.66L17.72 14.66L17.72 22L16.25 22L16.25 14.66ZM23.87 18.19L23.87 18.19L23.87 17.39Q23.87 16.19 24.30 15.27Q24.72 14.35 25.52 13.85Q26.32 13.35 27.37 13.35L27.37 13.35Q28.78 13.35 29.64 14.12Q30.51 14.89 30.65 16.29L30.65 16.29L29.17 16.29Q29.06 15.37 28.63 14.96Q28.20 14.55 27.37 14.55L27.37 14.55Q26.40 14.55 25.89 15.26Q25.37 15.96 25.36 17.33L25.36 17.33L25.36 18.09Q25.36 19.47 25.85 20.20Q26.35 20.92 27.30 20.92L27.30 20.92Q28.17 20.92 28.61 20.53Q29.05 20.14 29.17 19.22L29.17 19.22L30.65 19.22Q30.52 20.59 29.64 21.35Q28.76 22.12 27.30 22.12L27.30 22.12Q26.28 22.12 25.51 21.63Q24.73 21.15 24.31 20.26Q23.89 19.37 23.87 18.19ZM36.44 22L34.96 22L34.96 13.47L37.96 13.47Q39.44 13.47 40.24 14.13Q41.04 14.79 41.04 16.05L41.04 16.05Q41.04 16.90 40.63 17.48Q40.22 18.06 39.48 18.37L39.48 18.37L41.39 21.92L41.39 22L39.81 22L38.09 18.71L36.44 18.71L36.44 22ZM36.44 14.66L36.44 17.52L37.97 17.52Q38.72 17.52 39.14 17.15Q39.56 16.77 39.56 16.11L39.56 16.11Q39.56 15.43 39.17 15.05Q38.78 14.68 38.01 14.66L38.01 14.66L36.44 14.66Z" fill="#FFFFFF"/><path class="svg__text" d="M70.35 22L67.97 22L67.97 13.60L71.81 13.60Q72.95 13.60 73.79 13.98Q74.63 14.35 75.09 15.06Q75.54 15.76 75.54 16.71L75.54 16.71Q75.54 17.66 75.09 18.35Q74.63 19.05 73.79 19.42Q72.95 19.80 71.81 19.80L71.81 19.80L70.35 19.80L70.35 22ZM70.35 15.47L70.35 17.93L71.67 17.93Q72.40 17.93 72.77 17.61Q73.14 17.29 73.14 16.71L73.14 16.71Q73.14 16.12 72.77 15.80Q72.40 15.47 71.67 15.47L71.67 15.47L70.35 15.47ZM82.49 22L80.30 22L80.30 13.60L82.25 13.60L85.21 18.45L88.09 13.60L90.04 13.60L90.06 22L87.88 22L87.86 17.55L85.70 21.17L84.64 21.17L82.49 17.67L82.49 22ZM97.60 22L95.23 22L95.23 13.60L97.60 13.60L97.60 16.76L100.84 16.76L100.84 13.60L103.22 13.60L103.22 22L100.84 22L100.84 18.72L97.60 18.72L97.60 22ZM107.95 17.80L107.95 17.80Q107.95 16.54 108.55 15.54Q109.15 14.55 110.20 13.99Q111.25 13.43 112.57 13.43L112.57 13.43Q113.72 13.43 114.65 13.84Q115.57 14.25 116.18 15.02L116.18 15.02L114.67 16.39Q113.86 15.40 112.69 15.40L112.69 15.40Q112.01 15.40 111.47 15.70Q110.94 16 110.64 16.54Q110.35 17.09 110.35 17.80L110.35 17.80Q110.35 18.51 110.64 19.05Q110.94 19.60 111.47 19.90Q112.01 20.20 112.69 20.20L112.69 20.20Q113.86 20.20 114.67 19.22L114.67 19.22L116.18 20.58Q115.58 21.35 114.65 21.76Q113.72 22.17 112.57 22.17L112.57 22.17Q111.25 22.17 110.20 21.61Q109.15 21.05 108.55 20.05Q107.95 19.06 107.95 17.80Z" fill="#FFFFFF" x="66.78"/></svg>